<svg width="163" height="54" viewBox="0 0 163 54" fill="none" xmlns="http://www.w3.org/2000/svg">
<path fill-rule="evenodd" clip-rule="evenodd" d="M29.1969 12.9447C27.0216 12.063 24.6683 11.6828 22.3189 11.8335C19.9694 11.9842 17.6869 12.6617 15.6479 13.8136L13.5906 14.9759L11.215 10.9497L13.2723 9.78747C15.9425 8.27901 18.9315 7.39176 22.0081 7.19446C25.0848 6.99713 28.1665 7.495 31.0151 8.64953C33.8636 9.80409 36.4025 11.5843 38.4355 13.8526C40.4682 16.1209 41.9407 18.8164 42.7389 21.7305C43.5367 24.6447 43.6391 27.6994 43.0375 30.6584C42.4359 33.6174 41.1469 36.4014 39.2698 38.7949C37.3928 41.1884 34.9785 43.1274 32.2132 44.4617C29.4479 45.796 25.8811 46.4901 23.3228 46.4901C20.7644 46.4901 19.2705 46.1146 17.3087 45.3196C15.402 44.5468 13.6696 43.4142 12.2103 41.9863C10.751 40.5583 9.59346 38.8629 8.80368 36.9972C8.01394 35.1316 7.60742 33.132 7.60742 31.1126C7.60742 29.0932 8.01394 27.0936 8.80368 25.2279C9.59346 23.3622 10.751 21.667 12.2103 20.2391C13.6696 18.8112 15.402 17.6784 17.3087 16.9057C19.2154 16.1329 21.2589 15.7351 23.3227 15.7351C25.3864 15.7351 27.43 16.1329 29.3366 16.9057C31.2433 17.6784 32.9757 18.8112 34.435 20.2391C35.8943 21.667 37.0518 23.3622 37.8416 25.2279C38.1815 26.0304 38.4501 26.8577 38.6464 27.7007C38.7421 26.1004 38.5758 24.4908 38.1497 22.9338C37.5401 20.7084 36.4158 18.65 34.8634 16.9179C33.311 15.1858 31.3721 13.8263 29.1969 12.9447ZM13.8341 36.4879C14.1036 31.4901 18.3305 27.5186 23.5054 27.5186C28.4803 27.5186 32.5791 31.189 33.1279 35.9132C33.2443 35.6857 33.3524 35.4539 33.4522 35.2182C34.0032 33.9166 34.2868 32.5215 34.2868 31.1126C34.2868 29.7037 34.0032 28.3086 33.4522 27.007C32.9012 25.7053 32.0936 24.5227 31.0755 23.5264C30.0574 22.5302 28.8487 21.74 27.5185 21.2008C26.1883 20.6616 24.7625 20.3841 23.3227 20.3841C21.8829 20.3841 20.4571 20.6616 19.1269 21.2008C17.7967 21.74 16.588 22.5302 15.5699 23.5264C14.5518 24.5227 13.7442 25.7053 13.1931 27.007C12.6421 28.3086 12.3585 29.7037 12.3585 31.1126C12.3585 32.5215 12.6421 33.9166 13.1931 35.2182C13.3784 35.6558 13.5926 36.0799 13.8341 36.4879ZM28.4393 36.9954C28.4393 39.6618 26.2303 41.8232 23.5054 41.8232C20.7805 41.8232 18.5715 39.6618 18.5715 36.9954C18.5715 34.3291 20.7805 32.1676 23.5054 32.1676C26.2303 32.1676 28.4393 34.3291 28.4393 36.9954Z" fill="black"/>
<path d="M52.612 41L58.12 16.52H67.552L73.06 41H68.092L67.12 36.572H58.552L57.58 41H52.612ZM61.972 20.624L59.488 32.252H66.184L63.7 20.624H61.972ZM79.6725 34.052C79.6965 35.156 79.9845 35.96 80.5365 36.464C81.1125 36.944 81.9285 37.184 82.9845 37.184C85.2165 37.184 87.2085 37.112 88.9605 36.968L89.9685 36.86L90.0405 40.424C87.2805 41.096 84.7845 41.432 82.5525 41.432C79.8405 41.432 77.8725 40.712 76.6485 39.272C75.4245 37.832 74.8125 35.492 74.8125 32.252C74.8125 25.796 77.4645 22.568 82.7685 22.568C88.0005 22.568 90.6165 25.28 90.6165 30.704L90.2565 34.052H79.6725ZM85.8645 30.38C85.8645 28.94 85.6365 27.944 85.1805 27.392C84.7245 26.816 83.9205 26.528 82.7685 26.528C81.6405 26.528 80.8365 26.828 80.3565 27.428C79.9005 28.004 79.6605 28.988 79.6365 30.38H85.8645ZM110.372 43.232C110.372 45.296 109.58 46.82 107.996 47.804C106.412 48.788 104.264 49.28 101.552 49.28C98.864 49.28 96.788 48.92 95.324 48.2C93.884 47.48 93.164 46.172 93.164 44.276C93.164 42.764 94.028 41.336 95.756 39.992C94.868 39.392 94.424 38.48 94.424 37.256C94.424 36.776 94.784 35.984 95.504 34.88L95.828 34.376C94.196 33.2 93.38 31.472 93.38 29.192C93.38 26.888 94.064 25.22 95.432 24.188C96.824 23.156 98.66 22.64 100.94 22.64C101.972 22.64 102.992 22.76 104 23L104.576 23.108L110.372 22.928V26.78L107.672 26.564C108.2 27.38 108.464 28.196 108.464 29.012C108.464 31.412 107.852 33.068 106.628 33.98C105.404 34.892 103.484 35.348 100.868 35.348C100.316 35.348 99.824 35.3 99.392 35.204C99.152 35.828 99.032 36.344 99.032 36.752C99.032 37.136 99.236 37.4 99.644 37.544C100.052 37.688 101.012 37.772 102.524 37.796C105.548 37.82 107.612 38.228 108.716 39.02C109.82 39.788 110.372 41.192 110.372 43.232ZM97.916 43.772C97.916 44.804 99.176 45.32 101.696 45.32C104.24 45.32 105.512 44.72 105.512 43.52C105.512 42.872 105.296 42.452 104.864 42.26C104.432 42.092 103.52 41.996 102.128 41.972L98.888 41.72C98.24 42.368 97.916 43.052 97.916 43.772ZM98.204 29.048C98.204 30.8 99.116 31.676 100.94 31.676C102.788 31.676 103.712 30.8 103.712 29.048C103.712 27.272 102.788 26.384 100.94 26.384C99.116 26.384 98.204 27.272 98.204 29.048ZM113.295 41V23H118.119V41H113.295ZM113.295 20.696V15.8H118.119V20.696H113.295ZM135.5 27.5C132.524 27.116 130.436 26.924 129.236 26.924C128.06 26.924 127.292 27.032 126.932 27.248C126.596 27.464 126.428 27.812 126.428 28.292C126.428 28.748 126.656 29.072 127.112 29.264C127.592 29.432 128.792 29.696 130.712 30.056C132.656 30.392 134.036 30.956 134.852 31.748C135.668 32.54 136.076 33.824 136.076 35.6C136.076 39.488 133.664 41.432 128.84 41.432C127.256 41.432 125.336 41.216 123.08 40.784L121.928 40.568L122.072 36.536C125.048 36.92 127.112 37.112 128.264 37.112C129.44 37.112 130.232 37.004 130.64 36.788C131.072 36.548 131.288 36.2 131.288 35.744C131.288 35.288 131.06 34.952 130.604 34.736C130.172 34.52 129.02 34.256 127.148 33.944C125.3 33.632 123.92 33.104 123.008 32.36C122.096 31.616 121.64 30.296 121.64 28.4C121.64 26.48 122.288 25.04 123.584 24.08C124.88 23.096 126.548 22.604 128.588 22.604C130.004 22.604 131.936 22.832 134.384 23.288L135.572 23.504L135.5 27.5Z" fill="black"/>
</svg>
